<svg xmlns="http://www.w3.org/2000/svg" width="96" height="96" viewBox="0 0 24 24">
  <g fill="#ffffff">
    <g>
      <rect x="10.4" y="0.6" width="3.2" height="5.4" rx="1"/>
      <rect x="10.4" y="0.6" width="3.2" height="5.4" rx="1" transform="rotate(45 12 12)"/>
      <rect x="10.4" y="0.6" width="3.2" height="5.4" rx="1" transform="rotate(90 12 12)"/>
      <rect x="10.4" y="0.6" width="3.2" height="5.4" rx="1" transform="rotate(135 12 12)"/>
      <rect x="10.4" y="0.6" width="3.2" height="5.4" rx="1" transform="rotate(180 12 12)"/>
      <rect x="10.4" y="0.6" width="3.2" height="5.4" rx="1" transform="rotate(225 12 12)"/>
      <rect x="10.4" y="0.6" width="3.2" height="5.4" rx="1" transform="rotate(270 12 12)"/>
      <rect x="10.4" y="0.6" width="3.2" height="5.4" rx="1" transform="rotate(315 12 12)"/>
    </g>
    <path fill-rule="evenodd" d="M12 4.1a7.9 7.9 0 1 0 0 15.8 7.9 7.9 0 0 0 0-15.8zm0 4.6a3.3 3.3 0 1 1 0 6.6 3.3 3.3 0 0 1 0-6.6z"/>
  </g>
</svg>
