<svg xmlns="http://www.w3.org/2000/svg" width="96" height="96" viewBox="0 0 24 24">
  <g fill="#ffffff">
    <rect x="9.6" y="2.2" width="2.9" height="9" rx="1.45"/>
    <rect x="13" y="3.4" width="2.9" height="7.8" rx="1.45"/>
    <rect x="16.4" y="5.6" width="2.9" height="5.8" rx="1.45"/>
    <path d="M8.4 8.6c.8 .8 .8 2 0 2.8l-1.6 1.6 -3.4 -3.4c-.8 -.8 -.8 -2 0 -2.8 .8 -.8 2 -.8 2.8 0z"/>
    <path d="M6.2 10.9h13.1c1 0 1.8 .8 1.8 1.8v2.6c0 3.7 -3 6.7 -6.7 6.7h-2.6c-2.3 0 -4.4 -1.2 -5.6 -3.1l-2.6 -4.2c-.6 -1 -.3 -2.2 .7 -2.9 .3 -.2 .6 -.3 1 -.3z"/>
  </g>
</svg>
